<svg xmlns="http://www.w3.org/2000/svg" viewBox="0 0 158.93 203.44"><defs><style>.cls-1{fill:#2b2b2b;}.cls-2{fill:#fff;}</style></defs><g id="Layer_2" data-name="Layer 2"><path class="cls-1" d="M236,238.48l-40.39-77.89a3,3,0,0,1,1.16-4,80.9,80.9,0,0,0,9.5-6.48A54.85,54.85,0,0,0,217,138.86a56.35,56.35,0,0,0,7.58-15.14,59.55,59.55,0,0,0,2.85-18.86A68,68,0,0,0,223,80.57a60.47,60.47,0,0,0-13.28-20.86A66.44,66.44,0,0,0,187.86,45q-13-5.58-29.86-5.57H80.43a3,3,0,0,0-3,3V239.86a3,3,0,0,0,3,3h44a3,3,0,0,0,3-3V218.47h41.26l10.78,22.68a3,3,0,0,0,2.71,1.71h51.17A3,3,0,0,0,236,238.48ZM127.43,193.27V170.15a3,3,0,0,1,3-3h12a3,3,0,0,1,2.71,1.71l11.61,24.41Zm44.29-74.13q-5.73,6.3-16,6.29H130.43a3,3,0,0,1-3-3V87.29a3,3,0,0,1,3-3h25.28q10.29,0,16,6.28a20.72,20.72,0,0,1,0,28.57Z" transform="translate(-77.43 -39.43)"/><circle class="cls-2" cx="71.24" cy="65.43" r="31.11"/><path class="cls-1" d="M115.35,109.52s-14,10.07-12.72,14.93c2.81,10.37,89.17-13.62,90.75-30.08-.12-6.61-17.12-4.65-17.12-4.65,19.64-5.11,24.46-2,24.46-2s3.58,1.59,1.83,6.12c-2.47,6.39-18,18.83-41.65,27.39-27.81,10.09-61.77,15.55-63.68,9.92C95.73,125.6,100.81,115.75,115.35,109.52Z" transform="translate(-77.43 -39.43)"/><path class="cls-2" d="M115.35,104.49s-14,10.07-12.72,14.93c2.81,10.37,89.17-13.62,90.75-30.09-.12-6.6-17.12-4.64-17.12-4.64,19.64-5.11,24.46-2,24.46-2s3.58,1.59,1.83,6.12c-2.47,6.39-18,18.83-41.65,27.39-27.81,10.09-61.77,15.55-63.68,9.92C95.73,120.57,100.81,110.72,115.35,104.49Z" transform="translate(-77.43 -39.43)"/></g></svg>